<svg width="103" height="104" viewBox="0 0 103 104" fill="none" xmlns="http://www.w3.org/2000/svg">
<rect x="3.5" y="3.49963" width="95.6918" height="96.1796" rx="15.22" stroke="url(#paint0_linear_9332_748)" stroke-width="7"/>
<path d="M13.9529 17.8661V22.3476C13.9529 23.343 15.1542 23.8438 15.8612 23.1432L22.5479 16.5173C23.2585 15.8132 22.7599 14.6017 21.7596 14.6017H17.2788C16.9873 14.6017 16.7072 14.7154 16.4982 14.9186L14.2922 17.0631C14.0753 17.2739 13.9529 17.5636 13.9529 17.8661Z" fill="#09A8D1" fill-opacity="0.7"/>
<path d="M88.4811 17.8661V22.3476C88.4811 23.343 87.2798 23.8438 86.5727 23.1432L79.886 16.5173C79.1755 15.8132 79.6741 14.6017 80.6744 14.6017H85.1551C85.4467 14.6017 85.7268 14.7154 85.9358 14.9186L88.1418 17.0631C88.3587 17.2739 88.4811 17.5636 88.4811 17.8661Z" fill="#09A8D1" fill-opacity="0.7"/>
<path d="M17.2173 88.1299H21.6988C22.6942 88.1299 23.195 86.9286 22.4944 86.2215L15.8684 79.5348C15.1644 78.8243 13.9529 79.3229 13.9529 80.3232V84.8039C13.9529 85.0955 14.0666 85.3756 14.2698 85.5846L16.4143 87.7906C16.6251 88.0075 16.9148 88.1299 17.2173 88.1299Z" fill="#09A8D1" fill-opacity="0.7"/>
<path d="M85.2166 88.1299H80.7351C79.7398 88.1299 79.239 86.9286 79.9396 86.2215L86.5655 79.5348C87.2696 78.8243 88.4811 79.3229 88.4811 80.3232V84.8039C88.4811 85.0955 88.3674 85.3756 88.1642 85.5846L86.0197 87.7906C85.8088 88.0075 85.5192 88.1299 85.2166 88.1299Z" fill="#09A8D1" fill-opacity="0.7"/>
<path d="M66.2096 37.8214C65.8459 35.156 64.3459 33.0913 61.7096 31.6272C59.0732 30.1444 55.755 29.4029 51.755 29.4029C48.8914 29.4029 46.4141 29.7784 44.3232 30.5292C42.2323 31.2612 40.6073 32.2748 39.4482 33.57C38.3118 34.8463 37.7437 36.301 37.7437 37.9341C37.7437 39.3043 38.13 40.4868 38.9027 41.4816C39.6982 42.4765 40.7323 43.3117 42.005 43.9875C43.3005 44.6444 44.6868 45.1982 46.1641 45.6486C47.6414 46.0804 49.0618 46.437 50.4255 46.7186L57.2437 48.1826C59.4709 48.6331 61.755 49.2432 64.0959 50.0127C66.4368 50.7823 68.6073 51.7959 70.6073 53.0535C72.6073 54.3111 74.2209 55.8691 75.4482 57.7273C76.6982 59.5856 77.3232 61.8099 77.3232 64.4002C77.3232 67.6662 76.3005 70.5662 74.255 73.1002C72.2323 75.6342 69.2891 77.6332 65.4255 79.0973C61.5846 80.5614 56.9368 81.2935 51.4823 81.2935C46.255 81.2935 41.7323 80.6083 37.9141 79.2381C34.0959 77.8679 31.1073 75.9251 28.9482 73.4099C26.7891 70.8759 25.5959 67.8727 25.3687 64.4002H35.9368C36.1414 66.4837 36.9596 68.2199 38.3914 69.6089C39.8459 70.9792 41.6982 72.0022 43.9482 72.6779C46.2209 73.3348 48.7096 73.6633 51.4141 73.6633C54.3914 73.6633 57.0391 73.2785 59.3573 72.5089C61.6982 71.7206 63.5391 70.6319 64.88 69.2429C66.2209 67.8351 66.8914 66.1927 66.8914 64.3157C66.8914 62.6076 66.3005 61.2092 65.1187 60.1205C63.9596 59.0319 62.38 58.1309 60.38 57.4176C58.4027 56.7044 56.1641 56.0756 53.6641 55.5312L45.4141 53.673C39.8232 52.4153 35.3914 50.5665 32.1187 48.1263C28.8687 45.6862 27.2437 42.4577 27.2437 38.4408C27.2437 35.1185 28.3346 32.2185 30.5164 29.7408C32.6982 27.2631 35.6527 25.3392 39.38 23.9689C43.1073 22.5799 47.3118 21.8854 51.9937 21.8854C56.7209 21.8854 60.8914 22.5706 64.505 23.9408C68.1414 25.311 71.005 27.1974 73.0959 29.6C75.1868 31.9839 76.2777 34.7243 76.3687 37.8214H66.2096Z" fill="url(#paint1_linear_9332_748)"/>
<defs>
<linearGradient id="paint0_linear_9332_748" x1="1.23267e-06" y1="8.7248" x2="99.6891" y2="102.708" gradientUnits="userSpaceOnUse">
<stop stop-color="#14b8a6"/>
<stop offset="1" stop-color="#84cc16"/>
</linearGradient>
<linearGradient id="paint1_linear_9332_748" x1="25.3687" y1="26.9091" x2="81.8625" y2="73.7083" gradientUnits="userSpaceOnUse">
<stop stop-color="#14b8a6"/>
<stop offset="1" stop-color="#84cc16"/>
</linearGradient>
</defs>
</svg>
